<svg width="908" height="657" viewBox="0 0 908 657" fill="none" xmlns="http://www.w3.org/2000/svg">
<g filter="url(#filter0_d)">
<path d="M211.141 449.172L197.859 504.641L64.2656 1.125H93.1719L211.141 449.172ZM240.438 340.969L225.984 394.875L122.469 1.125H150.984L240.438 340.969ZM269.734 228.859L254.891 283.547L180.281 1.125H209.578L269.734 228.859ZM381.062 648H351.766L522.859 1.90625L522.469 1.125H552.156V1.90625L628.328 264.406L698.25 1.125H727.547L556.062 648H526.766L450.203 385.891L381.062 648ZM322.469 648H293.562L464.656 1.125H493.562L322.469 648ZM264.266 648H235.359L406.844 1.125H435.359L264.266 648ZM731.062 648H701.766L872.859 1.125H902.156L731.062 648ZM672.469 648H643.562L814.656 1.125H843.562L672.469 648ZM614.266 648H585.359L756.844 1.125H785.359L614.266 648ZM191.609 592.531L348.25 1.125H377.547L206.062 648H176.766L5.67188 1.125H34.9688L191.609 592.531ZM465.047 330.812L540.828 594.875L555.672 539.016L479.5 275.734L465.047 330.812ZM493.953 220.656L570.125 483.938L584.969 428.859L508.797 165.188L493.953 220.656ZM522.859 111.281L599.422 374.562L613.875 319.094L538.094 55.0312L522.859 111.281Z" fill="#FFC87D"/>
</g>
<defs>
<filter id="filter0_d" x="0.671875" y="0.125" width="906.484" height="656.875" filterUnits="userSpaceOnUse" color-interpolation-filters="sRGB">
<feFlood flood-opacity="0" result="BackgroundImageFix"/>
<feColorMatrix in="SourceAlpha" type="matrix" values="0 0 0 0 0 0 0 0 0 0 0 0 0 0 0 0 0 0 127 0"/>
<feOffset dy="4"/>
<feGaussianBlur stdDeviation="2.5"/>
<feColorMatrix type="matrix" values="0 0 0 0 0 0 0 0 0 0 0 0 0 0 0 0 0 0 0.4 0"/>
<feBlend mode="normal" in2="BackgroundImageFix" result="effect1_dropShadow"/>
<feBlend mode="normal" in="SourceGraphic" in2="effect1_dropShadow" result="shape"/>
</filter>
</defs>
</svg>
