<svg width="907" height="657" viewBox="0 0 907 657" fill="none" xmlns="http://www.w3.org/2000/svg">
<g filter="url(#filter0_d)">
<path d="M210.484 449.172L197.203 504.641L63.6094 1.125H92.5156L210.484 449.172ZM239.781 340.969L225.328 394.875L121.812 1.125H150.328L239.781 340.969ZM269.078 228.859L254.234 283.547L179.625 1.125H208.922L269.078 228.859ZM380.406 648H351.109L522.203 1.90625L521.812 1.125H551.5V1.90625L627.672 264.406L697.594 1.125H726.891L555.406 648H526.109L449.547 385.891L380.406 648ZM321.812 648H292.906L464 1.125H492.906L321.812 648ZM263.609 648H234.703L406.188 1.125H434.703L263.609 648ZM730.406 648H701.109L872.203 1.125H901.5L730.406 648ZM671.812 648H642.906L814 1.125H842.906L671.812 648ZM613.609 648H584.703L756.188 1.125H784.703L613.609 648ZM190.953 592.531L347.594 1.125H376.891L205.406 648H176.109L5.01562 1.125H34.3125L190.953 592.531ZM464.391 330.812L540.172 594.875L555.016 539.016L478.844 275.734L464.391 330.812ZM493.297 220.656L569.469 483.938L584.312 428.859L508.141 165.188L493.297 220.656ZM522.203 111.281L598.766 374.562L613.219 319.094L537.438 55.0312L522.203 111.281Z" fill="#E49D3C"/>
</g>
<defs>
<filter id="filter0_d" x="0.015625" y="0.125" width="906.484" height="656.875" filterUnits="userSpaceOnUse" color-interpolation-filters="sRGB">
<feFlood flood-opacity="0" result="BackgroundImageFix"/>
<feColorMatrix in="SourceAlpha" type="matrix" values="0 0 0 0 0 0 0 0 0 0 0 0 0 0 0 0 0 0 127 0"/>
<feOffset dy="4"/>
<feGaussianBlur stdDeviation="2.5"/>
<feColorMatrix type="matrix" values="0 0 0 0 0 0 0 0 0 0 0 0 0 0 0 0 0 0 0.4 0"/>
<feBlend mode="normal" in2="BackgroundImageFix" result="effect1_dropShadow"/>
<feBlend mode="normal" in="SourceGraphic" in2="effect1_dropShadow" result="shape"/>
</filter>
</defs>
</svg>
